<svg width="94" height="28" viewBox="0 0 94 28" fill="none" xmlns="http://www.w3.org/2000/svg">
<mask id="mask0_1_2" style="mask-type:luminance" maskUnits="userSpaceOnUse" x="0" y="4" width="24" height="24">
<path d="M24 4H0V28H24V4Z" fill="white"/>
</mask>
<g mask="url(#mask0_1_2)">
<path d="M12 28C18.6274 28 24 22.6274 24 16C24 9.37258 18.6274 4 12 4C5.37258 4 0 9.37258 0 16C0 22.6274 5.37258 28 12 28Z" fill="#22C55E"/>
<path d="M5.72656 7.93066V24.0503H15.61V21.4047H18.2746V7.93066H5.72656Z" fill="white"/>
<path d="M15.6094 24.05L18.2739 21.4043H15.6094V24.05Z" fill="#E6E9EE"/>
<path d="M9.08962 9.27246H7.21875V11.1433H9.08962V9.27246Z" fill="#FF7058"/>
<path d="M9.08962 11.8799H7.21875V13.7507H9.08962V11.8799Z" fill="#22C55E"/>
<path d="M9.08962 14.4697H7.21875V16.3406H9.08962V14.4697Z" fill="#324A5E"/>
<path d="M9.08962 17.0771H7.21875V18.948H9.08962V17.0771Z" fill="#84DBFF"/>
<path d="M16.782 9.27246H9.58203V9.68821H16.782V9.27246Z" fill="#E6E9EE"/>
<path d="M13.9474 10.123H9.58203V10.5388H13.9474V10.123Z" fill="#E6E9EE"/>
<path d="M16.782 11.8799H9.58203V12.2956H16.782V11.8799Z" fill="#E6E9EE"/>
<path d="M13.9474 12.7305H9.58203V13.1462H13.9474V12.7305Z" fill="#E6E9EE"/>
<path d="M16.782 14.4697H9.58203V14.8855H16.782V14.4697Z" fill="#E6E9EE"/>
<path d="M13.9474 15.3389H9.58203V15.7546H13.9474V15.3389Z" fill="#E6E9EE"/>
<path d="M16.782 17.0771H9.58203V17.4929H16.782V17.0771Z" fill="#E6E9EE"/>
<path d="M13.9474 17.9277H9.58203V18.3435H13.9474V17.9277Z" fill="#E6E9EE"/>
</g>
<path d="M29.256 7.32401V11.2C29.256 11.52 29.324 11.748 29.46 11.884C29.596 12.012 29.832 12.076 30.168 12.076H30.972V13H29.988C29.38 13 28.924 12.86 28.62 12.58C28.316 12.3 28.164 11.84 28.164 11.2V7.32401H27.312V6.42401H28.164V4.76801H29.256V6.42401H30.972V7.32401H29.256ZM38.2951 9.46001C38.2951 9.66801 38.2831 9.88801 38.2591 10.12H33.0031C33.0431 10.768 33.2631 11.276 33.6631 11.644C34.0711 12.004 34.5631 12.184 35.1391 12.184C35.6111 12.184 36.0031 12.076 36.3151 11.86C36.6351 11.636 36.8591 11.34 36.9871 10.972H38.1631C37.9871 11.604 37.6351 12.12 37.1071 12.52C36.5791 12.912 35.9231 13.108 35.1391 13.108C34.5151 13.108 33.9551 12.968 33.4591 12.688C32.9711 12.408 32.5871 12.012 32.3071 11.5C32.0271 10.98 31.8871 10.38 31.8871 9.70001C31.8871 9.02001 32.0231 8.42401 32.2951 7.91201C32.5671 7.40001 32.9471 7.00801 33.4351 6.73601C33.9311 6.45601 34.4991 6.31601 35.1391 6.31601C35.7631 6.31601 36.3151 6.45201 36.7951 6.72401C37.2751 6.99601 37.6431 7.37201 37.8991 7.85201C38.1631 8.32401 38.2951 8.86001 38.2951 9.46001ZM37.1671 9.23201C37.1671 8.81601 37.0751 8.46 36.8911 8.164C36.7071 7.86 36.4551 7.63201 36.1351 7.48001C35.8231 7.32001 35.4751 7.24001 35.0911 7.24001C34.5391 7.24001 34.0671 7.41601 33.6751 7.76801C33.2911 8.12001 33.0711 8.60801 33.0151 9.23201H37.1671ZM42.0645 13.108C41.5605 13.108 41.1085 13.024 40.7085 12.856C40.3085 12.68 39.9925 12.44 39.7605 12.136C39.5285 11.824 39.4005 11.468 39.3765 11.068H40.5045C40.5365 11.396 40.6885 11.664 40.9605 11.872C41.2405 12.08 41.6045 12.184 42.0525 12.184C42.4685 12.184 42.7965 12.092 43.0365 11.908C43.2765 11.724 43.3965 11.492 43.3965 11.212C43.3965 10.924 43.2685 10.712 43.0125 10.576C42.7565 10.432 42.3605 10.292 41.8245 10.156C41.3365 10.028 40.9365 9.90001 40.6245 9.77201C40.3205 9.63601 40.0565 9.44001 39.8325 9.18401C39.6165 8.92001 39.5085 8.57601 39.5085 8.15201C39.5085 7.81601 39.6085 7.50801 39.8085 7.22801C40.0085 6.94801 40.2925 6.72801 40.6605 6.56801C41.0285 6.40001 41.4485 6.31601 41.9205 6.31601C42.6485 6.31601 43.2365 6.50001 43.6845 6.86801C44.1325 7.23601 44.3725 7.74001 44.4045 8.38001H43.3125C43.2885 8.03601 43.1485 7.76001 42.8925 7.55201C42.6445 7.34401 42.3085 7.24001 41.8845 7.24001C41.4925 7.24001 41.1805 7.32401 40.9485 7.49201C40.7165 7.66001 40.6005 7.88001 40.6005 8.15201C40.6005 8.36801 40.6685 8.54801 40.8045 8.69201C40.9485 8.82801 41.1245 8.94001 41.3325 9.02801C41.5485 9.10801 41.8445 9.20001 42.2205 9.30401C42.6925 9.43201 43.0765 9.56 43.3725 9.688C43.6685 9.808 43.9205 9.99201 44.1285 10.24C44.3445 10.488 44.4565 10.812 44.4645 11.212C44.4645 11.572 44.3645 11.896 44.1645 12.184C43.9645 12.472 43.6805 12.7 43.3125 12.868C42.9525 13.028 42.5365 13.108 42.0645 13.108ZM47.338 7.32401V11.2C47.338 11.52 47.406 11.748 47.542 11.884C47.678 12.012 47.914 12.076 48.25 12.076H49.054V13H48.07C47.462 13 47.006 12.86 46.702 12.58C46.398 12.3 46.246 11.84 46.246 11.2V7.32401H45.394V6.42401H46.246V4.76801H47.338V6.42401H49.054V7.32401H47.338ZM56.0411 6.42401L52.0811 16.096H50.9531L52.2491 12.928L49.5971 6.42401H50.8091L52.8731 11.752L54.9131 6.42401H56.0411Z" fill="white"/>
<path d="M29.664 21.308H32.568V23H27.372V21.368L30.156 17.996H27.396V16.304H32.508V17.936L29.664 21.308ZM33.2891 19.64C33.2891 18.952 33.4171 18.348 33.6731 17.828C33.9371 17.308 34.2931 16.908 34.7411 16.628C35.1891 16.348 35.6891 16.208 36.2411 16.208C36.7131 16.208 37.1251 16.304 37.4771 16.496C37.8371 16.688 38.1131 16.94 38.3051 17.252V16.304H40.3571V23H38.3051V22.052C38.1051 22.364 37.8251 22.616 37.4651 22.808C37.1131 23 36.7011 23.096 36.2291 23.096C35.6851 23.096 35.1891 22.956 34.7411 22.676C34.2931 22.388 33.9371 21.984 33.6731 21.464C33.4171 20.936 33.2891 20.328 33.2891 19.64ZM38.3051 19.652C38.3051 19.14 38.1611 18.736 37.8731 18.44C37.5931 18.144 37.2491 17.996 36.8411 17.996C36.4331 17.996 36.0851 18.144 35.7971 18.44C35.5171 18.728 35.3771 19.128 35.3771 19.64C35.3771 20.152 35.5171 20.56 35.7971 20.864C36.0851 21.16 36.4331 21.308 36.8411 21.308C37.2491 21.308 37.5931 21.16 37.8731 20.864C38.1611 20.568 38.3051 20.164 38.3051 19.652ZM51.4537 16.304L49.6417 23H47.3737L46.3177 18.656L45.2257 23H42.9697L41.1457 16.304H43.1977L44.1457 21.092L45.2737 16.304H47.4457L48.5857 21.068L49.5217 16.304H51.4537ZM55.2842 23.096C54.6282 23.096 54.0362 22.956 53.5082 22.676C52.9882 22.396 52.5762 21.996 52.2722 21.476C51.9762 20.956 51.8282 20.348 51.8282 19.652C51.8282 18.964 51.9802 18.36 52.2842 17.84C52.5882 17.312 53.0042 16.908 53.5322 16.628C54.0602 16.348 54.6522 16.208 55.3082 16.208C55.9642 16.208 56.5562 16.348 57.0842 16.628C57.6122 16.908 58.0282 17.312 58.3322 17.84C58.6362 18.36 58.7882 18.964 58.7882 19.652C58.7882 20.34 58.6322 20.948 58.3202 21.476C58.0162 21.996 57.5962 22.396 57.0602 22.676C56.5322 22.956 55.9402 23.096 55.2842 23.096ZM55.2842 21.32C55.6762 21.32 56.0082 21.176 56.2802 20.888C56.5602 20.6 56.7002 20.188 56.7002 19.652C56.7002 19.116 56.5642 18.704 56.2922 18.416C56.0282 18.128 55.7002 17.984 55.3082 17.984C54.9082 17.984 54.5762 18.128 54.3122 18.416C54.0482 18.696 53.9162 19.108 53.9162 19.652C53.9162 20.188 54.0442 20.6 54.3002 20.888C54.5642 21.176 54.8922 21.32 55.2842 21.32ZM59.4688 19.64C59.4688 18.952 59.5968 18.348 59.8528 17.828C60.1168 17.308 60.4728 16.908 60.9208 16.628C61.3688 16.348 61.8688 16.208 62.4208 16.208C62.8608 16.208 63.2608 16.3 63.6208 16.484C63.9888 16.668 64.2768 16.916 64.4848 17.228V14.12H66.5368V23H64.4848V22.04C64.2928 22.36 64.0168 22.616 63.6568 22.808C63.3048 23 62.8928 23.096 62.4208 23.096C61.8688 23.096 61.3688 22.956 60.9208 22.676C60.4728 22.388 60.1168 21.984 59.8528 21.464C59.5968 20.936 59.4688 20.328 59.4688 19.64ZM64.4848 19.652C64.4848 19.14 64.3408 18.736 64.0528 18.44C63.7728 18.144 63.4288 17.996 63.0208 17.996C62.6128 17.996 62.2648 18.144 61.9768 18.44C61.6968 18.728 61.5568 19.128 61.5568 19.64C61.5568 20.152 61.6968 20.56 61.9768 20.864C62.2648 21.16 62.6128 21.308 63.0208 21.308C63.4288 21.308 63.7728 21.16 64.0528 20.864C64.3408 20.568 64.4848 20.164 64.4848 19.652ZM71.0693 23.096C70.4133 23.096 69.8213 22.956 69.2933 22.676C68.7733 22.396 68.3613 21.996 68.0573 21.476C67.7613 20.956 67.6133 20.348 67.6133 19.652C67.6133 18.964 67.7653 18.36 68.0693 17.84C68.3733 17.312 68.7893 16.908 69.3173 16.628C69.8453 16.348 70.4373 16.208 71.0933 16.208C71.7493 16.208 72.3413 16.348 72.8693 16.628C73.3973 16.908 73.8133 17.312 74.1173 17.84C74.4213 18.36 74.5733 18.964 74.5733 19.652C74.5733 20.34 74.4173 20.948 74.1053 21.476C73.8013 21.996 73.3813 22.396 72.8453 22.676C72.3173 22.956 71.7253 23.096 71.0693 23.096ZM71.0693 21.32C71.4613 21.32 71.7933 21.176 72.0653 20.888C72.3453 20.6 72.4853 20.188 72.4853 19.652C72.4853 19.116 72.3493 18.704 72.0773 18.416C71.8133 18.128 71.4853 17.984 71.0933 17.984C70.6933 17.984 70.3613 18.128 70.0973 18.416C69.8333 18.696 69.7013 19.108 69.7013 19.652C69.7013 20.188 69.8293 20.6 70.0853 20.888C70.3493 21.176 70.6773 21.32 71.0693 21.32ZM85.274 16.304L83.462 23H81.194L80.138 18.656L79.046 23H76.79L74.966 16.304H77.018L77.966 21.092L79.094 16.304H81.266L82.406 21.068L83.342 16.304H85.274ZM92.3685 19.544C92.3685 19.736 92.3565 19.936 92.3325 20.144H87.6885C87.7205 20.56 87.8525 20.88 88.0845 21.104C88.3245 21.32 88.6165 21.428 88.9605 21.428C89.4725 21.428 89.8285 21.212 90.0285 20.78H92.2125C92.1005 21.22 91.8965 21.616 91.6005 21.968C91.3125 22.32 90.9485 22.596 90.5085 22.796C90.0685 22.996 89.5765 23.096 89.0325 23.096C88.3765 23.096 87.7925 22.956 87.2805 22.676C86.7685 22.396 86.3685 21.996 86.0805 21.476C85.7925 20.956 85.6485 20.348 85.6485 19.652C85.6485 18.956 85.7885 18.348 86.0685 17.828C86.3565 17.308 86.7565 16.908 87.2685 16.628C87.7805 16.348 88.3685 16.208 89.0325 16.208C89.6805 16.208 90.2565 16.344 90.7605 16.616C91.2645 16.888 91.6565 17.276 91.9365 17.78C92.2245 18.284 92.3685 18.872 92.3685 19.544ZM90.2685 19.004C90.2685 18.652 90.1485 18.372 89.9085 18.164C89.6685 17.956 89.3685 17.852 89.0085 17.852C88.6645 17.852 88.3725 17.952 88.1325 18.152C87.9005 18.352 87.7565 18.636 87.7005 19.004H90.2685Z" fill="white"/>
</svg>
